<svg xmlns="http://www.w3.org/2000/svg" version="1.1" xmlns:xlink="http://www.w3.org/1999/xlink" xmlns:svgjs="http://svgjs.dev/svgjs" width="1500" height="1500" viewBox="0 0 1500 1500"><rect width="1500" height="1500" fill="#ffffff"></rect><g transform="matrix(0.6666666666666666,0,0,0.6666666666666666,250.10666666666668,422.9965253333334)"><svg viewBox="0 0 375 245" data-background-color="#ffffff" preserveAspectRatio="xMidYMid meet" height="980" width="1500" xmlns="http://www.w3.org/2000/svg" xmlns:xlink="http://www.w3.org/1999/xlink"><g id="tight-bounds" transform="matrix(1,0,0,1,-0.03976000000000113,0.12630299999999295)"><svg viewBox="0 0 375.07953 244.747394" height="244.747394" width="375.07953"><g><svg></svg></g><g><svg viewBox="0 0 375.07953 244.747394" height="244.747394" width="375.07953"><g transform="matrix(1,0,0,1,-10.22024,-2.4525999999999897)"><path d="M10.22 244.747v-242.294h375.08v242.294l-79.172 0 0-3.865h75.307v-234.564h-367.35v234.564l75.307 0 0 3.865z" fill="#4d7e3e" fill-rule="nonzero" stroke="none" stroke-width="1" stroke-linecap="butt" stroke-linejoin="miter" stroke-miterlimit="10" stroke-dasharray="" stroke-dashoffset="0" font-family="none" font-weight="none" font-size="none" text-anchor="none" style="mix-blend-mode: normal" data-fill-palette-color="tertiary"></path><g><path transform="translate(100.7994,247.04613) scale(0.34192,0.34192)" d="M8.65 0h-3.15v-27.3h-4.95v-2.25h13.15v2.25h-5.05zM21.75 0.45v0c-1.667 0-3.017-0.193-4.05-0.58-1.033-0.38-1.783-1.087-2.25-2.12-0.467-1.033-0.7-2.533-0.7-4.5v0-12.35c0-2.333 0.523-3.933 1.57-4.8 1.053-0.867 2.797-1.3 5.23-1.3v0c2.367 0 4.077 0.433 5.13 1.3 1.047 0.867 1.57 2.467 1.57 4.8v0 6.4h-10.4v7c0 1.6 0.25 2.707 0.75 3.32 0.5 0.62 1.517 0.93 3.05 0.93v0c1.4 0 2.333-0.3 2.8-0.9 0.467-0.6 0.7-1.717 0.7-3.35v0-3.2h3.1v2.1c0 1.933-0.233 3.423-0.7 4.47-0.467 1.053-1.173 1.78-2.12 2.18-0.953 0.4-2.18 0.6-3.68 0.6zM17.85-19.2v4.9h7.3v-4.9c0-1.4-0.233-2.417-0.7-3.05-0.467-0.633-1.433-0.95-2.9-0.95v0c-1.467 0-2.45 0.317-2.95 0.95-0.5 0.633-0.75 1.65-0.75 3.05zM35.8 0h-3.1v-24.75h2.6l0.35 2.75c0.367-0.967 0.977-1.733 1.83-2.3 0.847-0.567 1.887-0.85 3.12-0.85v0c1.933 0 3.29 0.4 4.07 1.2 0.787 0.8 1.197 1.967 1.23 3.5v0l-0.55 0.05c0.333-1.433 0.977-2.583 1.93-3.45 0.947-0.867 2.17-1.3 3.67-1.3v0c2.067 0 3.473 0.483 4.22 1.45 0.753 0.967 1.13 2.45 1.13 4.45v0 19.25h-3.1v-18.7c0-1.6-0.24-2.693-0.72-3.28-0.487-0.58-1.313-0.87-2.48-0.87v0c-1.1 0-2.017 0.323-2.75 0.97-0.733 0.653-1.133 1.463-1.2 2.43v0 19.45h-3.1v-19.1c0-1.367-0.24-2.333-0.72-2.9-0.487-0.567-1.347-0.85-2.58-0.85v0c-1.133 0-1.99 0.267-2.57 0.8-0.587 0.533-1.013 1.167-1.28 1.9v0zM66.65 0.4v0c-1.733 0-3.017-0.31-3.85-0.93-0.833-0.613-1.367-1.42-1.6-2.42-0.233-1-0.35-2.067-0.35-3.2v0-18.6h3.1v18.2c0 0.733 0.043 1.457 0.13 2.17 0.08 0.72 0.387 1.303 0.92 1.75 0.533 0.453 1.417 0.68 2.65 0.68v0c0.867 0 1.55-0.15 2.05-0.45 0.5-0.3 0.883-0.66 1.15-1.08 0.267-0.413 0.433-0.787 0.5-1.12v0-20.15h3.1v24.75h-2.65l-0.25-2.7c-0.267 0.8-0.81 1.517-1.63 2.15-0.813 0.633-1.903 0.95-3.27 0.95zM93.15 0h-3.3l-6.2-14.35 6.35-10.4h3.1l-6.4 10.4zM82.8 0h-3.05v-31.7h3.05zM101.05 0.35v0c-0.767 0-1.543-0.107-2.33-0.32-0.78-0.22-1.447-0.723-2-1.51-0.547-0.78-0.82-2.003-0.82-3.67v0-2.4c0-1.667 0.507-3.01 1.52-4.03 1.02-1.013 2.413-1.92 4.18-2.72v0c1.133-0.567 2.06-1.067 2.78-1.5 0.713-0.433 1.253-0.917 1.62-1.45 0.367-0.533 0.55-1.25 0.55-2.15v0-1.05c0-0.8-0.167-1.417-0.5-1.85-0.333-0.433-0.777-0.733-1.33-0.9-0.547-0.167-1.12-0.25-1.72-0.25v0c-1.5 0-2.483 0.407-2.95 1.22-0.467 0.82-0.7 2.03-0.7 3.63v0 2.1h-2.85v-2.4c0-1.233 0.167-2.327 0.5-3.28 0.333-0.947 0.967-1.697 1.9-2.25 0.933-0.547 2.3-0.82 4.1-0.82v0c1.9 0 3.323 0.217 4.27 0.65 0.953 0.433 1.587 1.05 1.9 1.85 0.32 0.8 0.48 1.75 0.48 2.85v0 19.9h-3.05l-0.05-3.1c-0.4 1.133-1.117 1.99-2.15 2.57-1.033 0.587-2.15 0.88-3.35 0.88zM102.2-1.75v0c1.5 0 2.59-0.533 3.27-1.6 0.687-1.067 1.03-2.483 1.03-4.25v0-7.9c-0.333 0.533-0.883 1.017-1.65 1.45-0.767 0.433-1.55 0.867-2.35 1.3v0c-1.133 0.667-2.01 1.357-2.63 2.07-0.613 0.72-0.92 1.713-0.92 2.98v0 1.95c0 1.2 0.167 2.083 0.5 2.65 0.333 0.567 0.75 0.933 1.25 1.1 0.5 0.167 1 0.25 1.5 0.25zM117.6 0h-3.1v-24.75h2.55l0.4 2.65c0.267-1 0.883-1.767 1.85-2.3 0.967-0.533 1.967-0.8 3-0.8v0c1.767 0 3.057 0.307 3.87 0.92 0.82 0.62 1.347 1.42 1.58 2.4 0.233 0.987 0.35 2.063 0.35 3.23v0 18.65h-3.1v-18.2c0-0.6-0.017-1.183-0.05-1.75-0.033-0.567-0.16-1.077-0.38-1.53-0.213-0.447-0.57-0.803-1.07-1.07-0.5-0.267-1.233-0.4-2.2-0.4v0c-0.833 0-1.51 0.157-2.03 0.47-0.513 0.32-0.893 0.687-1.14 1.1-0.253 0.42-0.43 0.813-0.53 1.18v0zM146 0h-3.25v-29.55h9.3c1.667 0 3.017 0.39 4.05 1.17 1.033 0.787 1.55 2.03 1.55 3.73v0 4.8c0 1.7-0.507 3.017-1.52 3.95-1.02 0.933-2.397 1.433-4.13 1.5v0-0.05c1.067 0.067 1.867 0.44 2.4 1.12 0.533 0.687 1 1.747 1.4 3.18v0l3.05 10.15h-3.5l-2.7-9.95c-0.267-0.933-0.607-1.777-1.02-2.53-0.42-0.747-1.097-1.12-2.03-1.12v0h-3.6zM146-27.7v11.85h4.4c1.533 0 2.61-0.36 3.23-1.08 0.613-0.713 0.92-1.77 0.92-3.17v0-4c0-1.233-0.293-2.143-0.88-2.73-0.58-0.58-1.47-0.87-2.67-0.87v0zM169.35 0.45v0c-1.667 0-3.017-0.193-4.05-0.58-1.033-0.38-1.783-1.087-2.25-2.12-0.467-1.033-0.7-2.533-0.7-4.5v0-12.35c0-2.333 0.527-3.933 1.58-4.8 1.047-0.867 2.787-1.3 5.22-1.3v0c2.367 0 4.077 0.433 5.13 1.3 1.047 0.867 1.57 2.467 1.57 4.8v0 6.4h-10.4v7c0 1.6 0.25 2.707 0.75 3.32 0.5 0.62 1.517 0.93 3.05 0.93v0c1.4 0 2.333-0.3 2.8-0.9 0.467-0.6 0.7-1.717 0.7-3.35v0-3.2h3.1v2.1c0 1.933-0.233 3.423-0.7 4.47-0.467 1.053-1.173 1.78-2.12 2.18-0.953 0.4-2.18 0.6-3.68 0.6zM165.45-19.2v4.9h7.3v-4.9c0-1.4-0.233-2.417-0.7-3.05-0.467-0.633-1.433-0.95-2.9-0.95v0c-1.467 0-2.45 0.317-2.95 0.95-0.5 0.633-0.75 1.65-0.75 3.05zM186.3 0.35v0c-1.8 0-3.2-0.227-4.2-0.68-1-0.447-1.7-1.163-2.1-2.15-0.4-0.98-0.6-2.287-0.6-3.92v0-2.15h3.15v2.85c0 1.567 0.267 2.65 0.8 3.25 0.533 0.6 1.5 0.9 2.9 0.9v0c1.233 0 2.14-0.3 2.72-0.9 0.587-0.6 0.88-1.617 0.88-3.05v0-1.4c0-0.767-0.117-1.427-0.35-1.98-0.233-0.547-0.673-1.053-1.32-1.52-0.653-0.467-1.563-0.933-2.73-1.4v0c-1.1-0.433-2.067-0.9-2.9-1.4-0.833-0.5-1.49-1.133-1.97-1.9-0.487-0.767-0.73-1.75-0.73-2.95v0-1.5c0-1.767 0.51-3.143 1.53-4.13 1.013-0.98 2.737-1.47 5.17-1.47v0c1.6 0 2.877 0.217 3.83 0.65 0.947 0.433 1.643 1.133 2.09 2.1 0.453 0.967 0.68 2.217 0.68 3.75v0 2.1h-3.05v-2.4c0-1.667-0.283-2.81-0.85-3.43-0.567-0.613-1.467-0.92-2.7-0.92v0c-1.4 0-2.343 0.333-2.83 1-0.48 0.667-0.72 1.5-0.72 2.5v0 1.35c0 0.933 0.21 1.7 0.63 2.3 0.413 0.6 1.003 1.1 1.77 1.5 0.767 0.4 1.683 0.817 2.75 1.25v0c0.967 0.4 1.823 0.823 2.57 1.27 0.753 0.453 1.347 1.063 1.78 1.83 0.433 0.767 0.65 1.817 0.65 3.15v0 1.15c0 1.333-0.207 2.473-0.62 3.42-0.42 0.953-1.13 1.68-2.13 2.18-1 0.5-2.367 0.75-4.1 0.75zM203 0.05v0c-0.733 0-1.4-0.083-2-0.25-0.6-0.167-1.117-0.443-1.55-0.83-0.433-0.38-0.767-0.88-1-1.5-0.233-0.613-0.35-1.387-0.35-2.32v0-17.95h-2.2v-1.6l2.4-0.35 0.55-4.65h2.35v4.65h5.35v1.95h-5.35v17.4c0 0.933 0.167 1.717 0.5 2.35 0.333 0.633 1.067 0.95 2.2 0.95v0c0.467 0 0.967-0.027 1.5-0.08 0.533-0.047 0.917-0.07 1.15-0.07v0 2c-0.267 0-0.733 0.05-1.4 0.15-0.667 0.1-1.383 0.15-2.15 0.15zM215.9 0.35v0c-1.533 0-2.81-0.21-3.83-0.63-1.013-0.413-1.763-1.153-2.25-2.22-0.48-1.067-0.72-2.533-0.72-4.4v0-11.55c0-2.4 0.523-4.117 1.57-5.15 1.053-1.033 2.797-1.55 5.23-1.55v0c2.433 0 4.173 0.5 5.22 1.5 1.053 1 1.58 2.733 1.58 5.2v0 11.55c0 1.867-0.233 3.323-0.7 4.37-0.467 1.053-1.2 1.797-2.2 2.23-1 0.433-2.3 0.65-3.9 0.65zM215.9-1.6v0c1.333 0 2.283-0.333 2.85-1 0.567-0.667 0.85-1.883 0.85-3.65v0-12.35c0-1.633-0.267-2.81-0.8-3.53-0.533-0.713-1.5-1.07-2.9-1.07v0c-1.3 0-2.243 0.34-2.83 1.02-0.58 0.687-0.87 1.88-0.87 3.58v0 12.35c0 1.733 0.29 2.94 0.87 3.62 0.587 0.687 1.53 1.03 2.83 1.03zM241.9 0h-3.15v-27.3h-4.95v-2.25h13.15v2.25h-5.05zM255 0.45v0c-1.667 0-3.017-0.193-4.05-0.58-1.033-0.38-1.783-1.087-2.25-2.12-0.467-1.033-0.7-2.533-0.7-4.5v0-12.35c0-2.333 0.523-3.933 1.57-4.8 1.053-0.867 2.797-1.3 5.23-1.3v0c2.367 0 4.077 0.433 5.13 1.3 1.047 0.867 1.57 2.467 1.57 4.8v0 6.4h-10.4v7c0 1.6 0.25 2.707 0.75 3.32 0.5 0.62 1.517 0.93 3.05 0.93v0c1.4 0 2.333-0.3 2.8-0.9 0.467-0.6 0.7-1.717 0.7-3.35v0-3.2h3.1v2.1c0 1.933-0.233 3.423-0.7 4.47-0.467 1.053-1.173 1.78-2.12 2.18-0.953 0.4-2.18 0.6-3.68 0.6zM251.1-19.2v4.9h7.3v-4.9c0-1.4-0.233-2.417-0.7-3.05-0.467-0.633-1.433-0.95-2.9-0.95v0c-1.467 0-2.45 0.317-2.95 0.95-0.5 0.633-0.75 1.65-0.75 3.05zM269.05 0h-3.1v-24.75h2.6l0.35 2.65c0.367-0.933 0.967-1.6 1.8-2 0.833-0.4 1.667-0.65 2.5-0.75v0c0.933-0.2 1.833-0.217 2.7-0.05v0 2.45c-0.133-0.033-0.367-0.067-0.7-0.1-0.333-0.033-0.69-0.05-1.07-0.05-0.387 0-0.747 0.067-1.08 0.2v0c-1.133 0.133-2.083 0.54-2.85 1.22-0.767 0.687-1.15 1.613-1.15 2.78v0zM285.95 0.35v0c-1.567 0-2.727-0.277-3.48-0.83-0.747-0.547-1.253-1.153-1.52-1.82v0l-0.15 2.3h-2.2v-31.5h3.05v8.8c0.4-0.833 0.993-1.46 1.78-1.88 0.78-0.413 1.77-0.62 2.97-0.62v0c1.267 0 2.333 0.2 3.2 0.6 0.867 0.4 1.517 1.05 1.95 1.95 0.433 0.9 0.65 2.15 0.65 3.75v0 12.25c0 1.367-0.127 2.5-0.38 3.4-0.247 0.9-0.62 1.617-1.12 2.15-0.5 0.533-1.143 0.91-1.93 1.13-0.78 0.213-1.72 0.32-2.82 0.32zM285.4-1.85v0c0.933 0 1.667-0.133 2.2-0.4 0.533-0.267 0.917-0.727 1.15-1.38 0.233-0.647 0.35-1.553 0.35-2.72v0-12.45c0-1.667-0.277-2.8-0.83-3.4-0.547-0.6-1.503-0.9-2.87-0.9v0c-1.4 0-2.367 0.35-2.9 1.05-0.533 0.7-0.8 1.717-0.8 3.05v0 12.35c0 1.7 0.29 2.923 0.87 3.67 0.587 0.753 1.53 1.13 2.83 1.13zM301.35 0.35v0c-0.767 0-1.543-0.107-2.33-0.32-0.78-0.22-1.447-0.723-2-1.51-0.547-0.78-0.82-2.003-0.82-3.67v0-2.4c0-1.667 0.507-3.01 1.52-4.03 1.02-1.013 2.413-1.92 4.18-2.72v0c1.133-0.567 2.06-1.067 2.78-1.5 0.713-0.433 1.253-0.917 1.62-1.45 0.367-0.533 0.55-1.25 0.55-2.15v0-1.05c0-0.8-0.167-1.417-0.5-1.85-0.333-0.433-0.777-0.733-1.33-0.9-0.547-0.167-1.12-0.25-1.72-0.25v0c-1.5 0-2.483 0.407-2.95 1.22-0.467 0.82-0.7 2.03-0.7 3.63v0 2.1h-2.85v-2.4c0-1.233 0.167-2.327 0.5-3.28 0.333-0.947 0.967-1.697 1.9-2.25 0.933-0.547 2.3-0.82 4.1-0.82v0c1.9 0 3.323 0.217 4.27 0.65 0.953 0.433 1.587 1.05 1.9 1.85 0.32 0.8 0.48 1.75 0.48 2.85v0 19.9h-3.05l-0.05-3.1c-0.4 1.133-1.117 1.99-2.15 2.57-1.033 0.587-2.15 0.88-3.35 0.88zM302.5-1.75v0c1.5 0 2.59-0.533 3.27-1.6 0.687-1.067 1.03-2.483 1.03-4.25v0-7.9c-0.333 0.533-0.883 1.017-1.65 1.45-0.767 0.433-1.55 0.867-2.35 1.3v0c-1.133 0.667-2.007 1.357-2.62 2.07-0.62 0.72-0.93 1.713-0.93 2.98v0 1.95c0 1.2 0.167 2.083 0.5 2.65 0.333 0.567 0.75 0.933 1.25 1.1 0.5 0.167 1 0.25 1.5 0.25zM317.85 0h-3.05v-24.75h3.05zM316.35-27.8v0c-0.5 0-0.927-0.177-1.28-0.53-0.347-0.347-0.52-0.753-0.52-1.22v0c0-0.5 0.173-0.91 0.52-1.23 0.353-0.313 0.78-0.47 1.28-0.47v0c0.467 0 0.883 0.157 1.25 0.47 0.367 0.32 0.55 0.73 0.55 1.23v0c0 0.467-0.183 0.873-0.55 1.22-0.367 0.353-0.783 0.53-1.25 0.53zM336.55 0h-3.3l-6.2-14.35 6.35-10.4h3.1l-6.4 10.4zM326.2 0h-3.05v-31.7h3.05zM354.7 0.4v0c-1.233 0-2.25-0.16-3.05-0.48-0.8-0.313-1.423-0.763-1.87-1.35-0.453-0.58-0.763-1.313-0.93-2.2-0.167-0.88-0.25-1.887-0.25-3.02v0-12.35c0-0.9 0.093-1.727 0.28-2.48 0.18-0.747 0.487-1.397 0.92-1.95 0.433-0.547 1.017-0.98 1.75-1.3 0.733-0.313 1.667-0.47 2.8-0.47v0c1.333 0 2.377 0.2 3.13 0.6 0.747 0.4 1.287 0.883 1.62 1.45v0-8.35h3.1v31.5h-2.15l-0.3-2.35c-0.2 0.433-0.49 0.86-0.87 1.28-0.387 0.413-0.907 0.76-1.56 1.04-0.647 0.287-1.52 0.43-2.62 0.43zM355.25-1.5v0c0.967 0 1.717-0.173 2.25-0.52 0.533-0.353 0.91-0.813 1.13-1.38 0.213-0.567 0.347-1.193 0.4-1.88 0.047-0.68 0.07-1.353 0.07-2.02v0-13.55c-0.1-0.3-0.277-0.633-0.53-1-0.247-0.367-0.62-0.683-1.12-0.95-0.5-0.267-1.183-0.4-2.05-0.4v0c-0.967 0-1.7 0.133-2.2 0.4-0.5 0.267-0.857 0.623-1.07 1.07-0.22 0.453-0.347 0.963-0.38 1.53-0.033 0.567-0.05 1.15-0.05 1.75v0 12.2c0 0.8 0.05 1.567 0.15 2.3 0.1 0.733 0.4 1.323 0.9 1.77 0.5 0.453 1.333 0.68 2.5 0.68zM370.5 0h-3.05v-24.75h3.05zM369-27.8v0c-0.5 0-0.923-0.177-1.27-0.53-0.353-0.347-0.53-0.753-0.53-1.22v0c0-0.5 0.177-0.91 0.53-1.23 0.347-0.313 0.77-0.47 1.27-0.47v0c0.467 0 0.883 0.157 1.25 0.47 0.367 0.32 0.55 0.73 0.55 1.23v0c0 0.467-0.183 0.873-0.55 1.22-0.367 0.353-0.783 0.53-1.25 0.53zM391.55 0.35v0c-1.5 0-2.79-0.267-3.87-0.8-1.087-0.533-1.93-1.427-2.53-2.68-0.6-1.247-0.9-2.987-0.9-5.22v0-1.65c0.533 0 1.077 0 1.63 0 0.547 0 1.07 0 1.57 0v0 1.85c0 1.667 0.177 2.957 0.53 3.87 0.347 0.92 0.83 1.563 1.45 1.93 0.613 0.367 1.32 0.55 2.12 0.55v0c1.3 0 2.36-0.41 3.18-1.23 0.813-0.813 1.22-2.27 1.22-4.37v0c0-1.5-0.217-2.627-0.65-3.38-0.433-0.747-1.1-1.347-2-1.8-0.9-0.447-2-0.937-3.3-1.47v0c-1.067-0.433-2.023-0.96-2.87-1.58-0.853-0.613-1.513-1.42-1.98-2.42-0.467-1-0.7-2.267-0.7-3.8v0c0-1.733 0.233-3.177 0.7-4.33 0.467-1.147 1.233-2.003 2.3-2.57 1.067-0.567 2.483-0.85 4.25-0.85v0c2.3 0 4.077 0.573 5.33 1.72 1.247 1.153 1.87 2.78 1.87 4.88v0 3.25c-0.5 0-1.007 0-1.52 0-0.52 0-1.047 0-1.58 0v0-2.5c0-1.6-0.34-2.81-1.02-3.63-0.687-0.813-1.697-1.22-3.03-1.22v0c-1.467 0-2.523 0.423-3.17 1.27-0.653 0.853-0.98 2.147-0.98 3.88v0c0 1.3 0.25 2.323 0.75 3.07 0.5 0.753 1.15 1.337 1.95 1.75 0.8 0.42 1.65 0.797 2.55 1.13v0c1.5 0.567 2.717 1.157 3.65 1.77 0.933 0.62 1.617 1.413 2.05 2.38 0.433 0.967 0.65 2.317 0.65 4.05v0c0 2.033-0.323 3.64-0.97 4.82-0.653 1.187-1.553 2.037-2.7 2.55-1.153 0.52-2.48 0.78-3.98 0.78zM410.15 0.45v0c-1.667 0-3.017-0.193-4.05-0.58-1.033-0.38-1.783-1.087-2.25-2.12-0.467-1.033-0.7-2.533-0.7-4.5v0-12.35c0-2.333 0.527-3.933 1.58-4.8 1.047-0.867 2.787-1.3 5.22-1.3v0c2.367 0 4.077 0.433 5.13 1.3 1.047 0.867 1.57 2.467 1.57 4.8v0 6.4h-10.4v7c0 1.6 0.25 2.707 0.75 3.32 0.5 0.62 1.517 0.93 3.05 0.93v0c1.4 0 2.333-0.3 2.8-0.9 0.467-0.6 0.7-1.717 0.7-3.35v0-3.2h3.1v2.1c0 1.933-0.233 3.423-0.7 4.47-0.467 1.053-1.173 1.78-2.12 2.18-0.953 0.4-2.18 0.6-3.68 0.6zM406.25-19.2v4.9h7.3v-4.9c0-1.4-0.233-2.417-0.7-3.05-0.467-0.633-1.433-0.95-2.9-0.95v0c-1.467 0-2.45 0.317-2.95 0.95-0.5 0.633-0.75 1.65-0.75 3.05zM434.5 0h-3.3l-6.2-14.35 6.35-10.4h3.1l-6.4 10.4zM424.15 0h-3.05v-31.7h3.05zM440.95 0h-3.05v-24.75h3.05zM439.45-27.8v0c-0.5 0-0.923-0.177-1.27-0.53-0.353-0.347-0.53-0.753-0.53-1.22v0c0-0.5 0.177-0.91 0.53-1.23 0.347-0.313 0.77-0.47 1.27-0.47v0c0.467 0 0.883 0.157 1.25 0.47 0.367 0.32 0.55 0.73 0.55 1.23v0c0 0.467-0.183 0.873-0.55 1.22-0.367 0.353-0.783 0.53-1.25 0.53zM451.6 0.05v0c-0.733 0-1.4-0.083-2-0.25-0.6-0.167-1.117-0.443-1.55-0.83-0.433-0.38-0.767-0.88-1-1.5-0.233-0.613-0.35-1.387-0.35-2.32v0-17.95h-2.2v-1.6l2.4-0.35 0.55-4.65h2.35v4.65h5.35v1.95h-5.35v17.4c0 0.933 0.167 1.717 0.5 2.35 0.333 0.633 1.067 0.95 2.2 0.95v0c0.467 0 0.967-0.027 1.5-0.08 0.533-0.047 0.917-0.07 1.15-0.07v0 2c-0.267 0-0.733 0.05-1.4 0.15-0.667 0.1-1.383 0.15-2.15 0.15zM462.85 0.35v0c-0.767 0-1.54-0.107-2.32-0.32-0.787-0.22-1.453-0.723-2-1.51-0.553-0.78-0.83-2.003-0.83-3.67v0-2.4c0-1.667 0.51-3.01 1.53-4.03 1.013-1.013 2.403-1.92 4.17-2.72v0c1.133-0.567 2.06-1.067 2.78-1.5 0.713-0.433 1.253-0.917 1.62-1.45 0.367-0.533 0.55-1.25 0.55-2.15v0-1.05c0-0.8-0.167-1.417-0.5-1.85-0.333-0.433-0.773-0.733-1.32-0.9-0.553-0.167-1.13-0.25-1.73-0.25v0c-1.5 0-2.483 0.407-2.95 1.22-0.467 0.82-0.7 2.03-0.7 3.63v0 2.1h-2.85v-2.4c0-1.233 0.167-2.327 0.5-3.28 0.333-0.947 0.967-1.697 1.9-2.25 0.933-0.547 2.3-0.82 4.1-0.82v0c1.9 0 3.327 0.217 4.28 0.65 0.947 0.433 1.58 1.05 1.9 1.85 0.313 0.8 0.47 1.75 0.47 2.85v0 19.9h-3.05l-0.05-3.1c-0.4 1.133-1.117 1.99-2.15 2.57-1.033 0.587-2.15 0.88-3.35 0.88zM464-1.75v0c1.5 0 2.593-0.533 3.28-1.6 0.68-1.067 1.02-2.483 1.02-4.25v0-7.9c-0.333 0.533-0.883 1.017-1.65 1.45-0.767 0.433-1.55 0.867-2.35 1.3v0c-1.133 0.667-2.007 1.357-2.62 2.07-0.62 0.72-0.93 1.713-0.93 2.98v0 1.95c0 1.2 0.167 2.083 0.5 2.65 0.333 0.567 0.75 0.933 1.25 1.1 0.5 0.167 1 0.25 1.5 0.25zM479.4 0h-3.1v-24.75h2.6l0.35 2.65c0.367-0.933 0.967-1.6 1.8-2 0.833-0.4 1.667-0.65 2.5-0.75v0c0.933-0.2 1.833-0.217 2.7-0.05v0 2.45c-0.133-0.033-0.367-0.067-0.7-0.1-0.333-0.033-0.69-0.05-1.07-0.05-0.387 0-0.747 0.067-1.08 0.2v0c-1.133 0.133-2.083 0.54-2.85 1.22-0.767 0.687-1.15 1.613-1.15 2.78v0zM499.6 0h-3.3l6.55-29.55h4.05l6.45 29.55h-3.4l-1.6-6.85h-7.25zM504.8-25.7l-3.6 17.1h7.1zM519.85 0h-3.1v-24.75h2.55l0.4 2.65c0.267-1 0.883-1.767 1.85-2.3 0.967-0.533 1.967-0.8 3-0.8v0c1.767 0 3.06 0.307 3.88 0.92 0.813 0.62 1.337 1.42 1.57 2.4 0.233 0.987 0.35 2.063 0.35 3.23v0 18.65h-3.1v-18.2c0-0.6-0.017-1.183-0.05-1.75-0.033-0.567-0.157-1.077-0.37-1.53-0.22-0.447-0.58-0.803-1.08-1.07-0.5-0.267-1.233-0.4-2.2-0.4v0c-0.833 0-1.51 0.157-2.03 0.47-0.513 0.32-0.893 0.687-1.14 1.1-0.253 0.42-0.43 0.813-0.53 1.18v0zM540.75 0.4v0c-1.233 0-2.25-0.16-3.05-0.48-0.8-0.313-1.423-0.763-1.87-1.35-0.453-0.58-0.763-1.313-0.93-2.2-0.167-0.88-0.25-1.887-0.25-3.02v0-12.35c0-0.9 0.093-1.727 0.28-2.48 0.18-0.747 0.487-1.397 0.92-1.95 0.433-0.547 1.017-0.98 1.75-1.3 0.733-0.313 1.667-0.47 2.8-0.47v0c1.333 0 2.373 0.2 3.12 0.6 0.753 0.4 1.297 0.883 1.63 1.45v0-8.35h3.1v31.5h-2.15l-0.3-2.35c-0.2 0.433-0.49 0.86-0.87 1.28-0.387 0.413-0.903 0.76-1.55 1.04-0.653 0.287-1.53 0.43-2.63 0.43zM541.3-1.5v0c0.967 0 1.717-0.173 2.25-0.52 0.533-0.353 0.91-0.813 1.13-1.38 0.213-0.567 0.347-1.193 0.4-1.88 0.047-0.68 0.07-1.353 0.07-2.02v0-13.55c-0.1-0.3-0.273-0.633-0.52-1-0.253-0.367-0.63-0.683-1.13-0.95-0.5-0.267-1.183-0.4-2.05-0.4v0c-0.967 0-1.7 0.133-2.2 0.4-0.5 0.267-0.857 0.623-1.07 1.07-0.22 0.453-0.347 0.963-0.38 1.53-0.033 0.567-0.05 1.15-0.05 1.75v0 12.2c0 0.8 0.05 1.567 0.15 2.3 0.1 0.733 0.4 1.323 0.9 1.77 0.5 0.453 1.333 0.68 2.5 0.68zM558 0.35v0c-0.767 0-1.54-0.107-2.32-0.32-0.787-0.22-1.453-0.723-2-1.51-0.553-0.78-0.83-2.003-0.83-3.67v0-2.4c0-1.667 0.51-3.01 1.53-4.03 1.013-1.013 2.403-1.92 4.17-2.72v0c1.133-0.567 2.06-1.067 2.78-1.5 0.713-0.433 1.253-0.917 1.62-1.45 0.367-0.533 0.55-1.25 0.55-2.15v0-1.05c0-0.8-0.167-1.417-0.5-1.85-0.333-0.433-0.773-0.733-1.32-0.9-0.553-0.167-1.13-0.25-1.73-0.25v0c-1.5 0-2.483 0.407-2.95 1.22-0.467 0.82-0.7 2.03-0.7 3.63v0 2.1h-2.85v-2.4c0-1.233 0.167-2.327 0.5-3.28 0.333-0.947 0.967-1.697 1.9-2.25 0.933-0.547 2.3-0.82 4.1-0.82v0c1.9 0 3.327 0.217 4.28 0.65 0.947 0.433 1.58 1.05 1.9 1.85 0.313 0.8 0.47 1.75 0.47 2.85v0 19.9h-3.05l-0.05-3.1c-0.4 1.133-1.117 1.99-2.15 2.57-1.033 0.587-2.15 0.88-3.35 0.88zM559.15-1.75v0c1.5 0 2.593-0.533 3.28-1.6 0.68-1.067 1.02-2.483 1.02-4.25v0-7.9c-0.333 0.533-0.883 1.017-1.65 1.45-0.767 0.433-1.55 0.867-2.35 1.3v0c-1.133 0.667-2.007 1.357-2.62 2.07-0.62 0.72-0.93 1.713-0.93 2.98v0 1.95c0 1.2 0.167 2.083 0.5 2.65 0.333 0.567 0.75 0.933 1.25 1.1 0.5 0.167 1 0.25 1.5 0.25z" fill="#4d7e3e" fill-rule="nonzero" stroke="none" stroke-width="1" stroke-linecap="butt" stroke-linejoin="miter" stroke-miterlimit="10" stroke-dasharray="" stroke-dashoffset="0" font-family="none" font-weight="none" font-size="none" text-anchor="none" style="mix-blend-mode: normal" data-fill-palette-color="secondary" id="text-1"></path></g></g><g transform="matrix(1,0,0,1,29.33176499999999,59.277440770924215)"><svg viewBox="0 0 316.416 126.19251245815158" height="126.19251245815158" width="316.416"><g><svg viewBox="0 0 317.99807999999996 126.82347502044233" height="126.19251245815158" width="316.416"><g><rect width="317.99807999999996" height="3.8844355359491516" x="0" y="69.69660664635619" fill="#4d7e3e" opacity="1" stroke-width="0" stroke="transparent" fill-opacity="1" class="rect-yte-0" data-fill-palette-color="secondary" rx="1%" id="yte-0" data-palette-color="#4d7e3e"></rect></g><g transform="matrix(1,0,0,1,0.7910399999999811,83.74972159578479)"><svg viewBox="0 0 316.416 43.07375342465754" height="43.07375342465754" width="316.416"><g id="textblocktransform"><svg viewBox="0 0 316.416 43.07375342465754" height="43.07375342465754" width="316.416" id="textblock"><g><svg viewBox="0 0 316.416 43.07375342465754" height="43.07375342465754" width="316.416"><g transform="matrix(1,0,0,1,0,0)"><svg width="316.416" viewBox="2.76 -38.11 285.13 38.82" height="43.07375342465754" data-palette-color="#4d7e3e"><path d="M33.74 0L26.2 0 18.51-15.09Q17.8-14.99 17.05-14.94 16.31-14.89 15.53-14.89L15.53-14.89Q14.62-14.89 13.68-14.97 12.74-15.04 11.74-15.16L11.74-15.16 11.74-2.76 17.26-1 17.26 0 2.76 0 2.76-1 7.25-2.76 7.25-33.25 2.76-35.01 2.76-36.01 16.5-36.01Q19.68-36.01 22.14-35.29 24.61-34.57 26.31-33.25 28-31.93 28.88-30.09 29.76-28.25 29.76-26L29.76-26Q29.76-22.71 28.06-20.15 26.37-17.6 23.05-16.26L23.05-16.26 30.15-2.39 33.74-1 33.74 0ZM17.21-33.45L17.21-33.45 11.74-33.45 11.74-17.75Q12.74-17.63 13.64-17.57 14.53-17.5 15.38-17.5L15.38-17.5Q24.8-17.5 24.8-25.61L24.8-25.61Q24.8-29.54 22.85-31.49 20.9-33.45 17.21-33.45ZM59.06-13.06L58.35-12.35 42.55-12.35Q42.58-9.62 43.33-7.59 44.09-5.57 45.38-4.42 46.68-3.27 48.23-2.73 49.78-2.2 51.61-2.2L51.61-2.2Q54.15-2.2 57.05-3.91L57.05-3.91 57.81-2.44Q55.76-0.63 53.71-0.01 51.66 0.61 49.05 0.61L49.05 0.61Q46.77 0.61 44.68-0.35 42.58-1.32 40.99-3.02 39.4-4.71 38.45-7.18 37.5-9.64 37.5-12.5L37.5-12.5Q37.5-15.21 38.19-17.44 38.89-19.68 40.04-21.17 41.18-22.66 42.71-23.68 44.24-24.71 45.83-25.16 47.43-25.61 49.09-25.61L49.09-25.61Q51.17-25.61 52.94-24.84 54.71-24.07 56.09-22.57 57.47-21.07 58.26-18.63 59.06-16.19 59.06-13.06L59.06-13.06ZM49.19-23.24L49.19-23.24Q46.38-23.24 44.71-21.02 43.04-18.8 42.65-14.94L42.65-14.94 54.29-14.94Q54.29-18.85 52.98-21.04 51.66-23.24 49.19-23.24ZM64.06-8.25L65.3-8.25 67.91-2.71Q68.23-2.51 68.7-2.36 69.16-2.2 69.7-2.08 70.23-1.95 70.8-1.88 71.36-1.81 71.89-1.81L71.89-1.81Q73.14-1.81 74.15-2.06 75.17-2.32 75.9-2.8 76.63-3.27 77.02-3.97 77.41-4.66 77.41-5.54L77.41-5.54Q77.41-6.69 76.47-7.73 75.53-8.76 73.82-9.74L73.82-9.74 71.21-11.21Q69.82-11.94 68.61-12.72 67.4-13.5 66.5-14.43 65.6-15.36 65.07-16.48 64.55-17.6 64.55-18.99L64.55-18.99Q64.55-20.68 65.2-21.92 65.86-23.17 67.08-23.99 68.31-24.8 70.03-25.21 71.75-25.61 73.85-25.61L73.85-25.61Q77.07-25.61 80.29-24.56L80.29-24.56 80.2-17.5 79.19-17.5 76.61-23.24Q75.68-23.36 75.01-23.44 74.34-23.51 73.9-23.51L73.9-23.51Q72.58-23.51 71.61-23.21 70.65-22.9 70.03-22.4 69.4-21.9 69.1-21.26 68.79-20.63 68.79-19.95L68.79-19.95Q68.79-19.14 69.1-18.49 69.4-17.85 70-17.26 70.6-16.67 71.5-16.1 72.41-15.53 73.6-14.89L73.6-14.89Q75.31-13.96 76.42-13.38 77.53-12.79 78.02-12.45L78.02-12.45Q81.86-9.89 81.86-6.54L81.86-6.54Q81.86-4.74 80.99-3.38 80.12-2.03 78.72-1.11 77.31-0.2 75.56 0.26 73.8 0.71 72.02 0.71L72.02 0.71Q71.09 0.71 70.01 0.59 68.94 0.46 67.87 0.24 66.79 0.02 65.8-0.28 64.81-0.59 64.06-0.95L64.06-0.95 64.06-8.25ZM102.09-23.1L94.08-21.61 94.08-8.01Q94.08-6.35 94.34-5.22 94.6-4.1 95.1-3.55 95.6-3 96.16-2.8 96.72-2.59 97.5-2.59L97.5-2.59Q98.97-2.59 99.96-2.84 100.94-3.1 102.09-3.81L102.09-3.81 102.85-2.25Q99.41 0.61 95.31 0.61L95.31 0.61Q92.91 0.61 91.25-1.28 89.59-3.17 89.59-6.59L89.59-6.59 89.59-21.61 85.05-22.85 85.05-23.85 89.79-24.85 91.59-31.59 94.08-31.59 94.08-24.85 101.24-24.85 102.09-24.56 102.09-23.1ZM118.91-25.61L118.91-25.61Q121.69-25.61 123.92-24.66 126.14-23.71 127.68-21.98 129.21-20.26 130.03-17.85 130.85-15.43 130.85-12.5L130.85-12.5Q130.85-9.59 130.04-7.18 129.24-4.76 127.7-3.03 126.16-1.29 123.94-0.34 121.72 0.61 118.91 0.61L118.91 0.61Q116.08 0.61 113.86-0.34 111.64-1.29 110.1-3.03 108.56-4.76 107.75-7.17 106.95-9.57 106.95-12.5L106.95-12.5Q106.95-15.43 107.77-17.85 108.58-20.26 110.12-21.98 111.66-23.71 113.88-24.66 116.1-25.61 118.91-25.61ZM113.59-20.43L113.59-20.43Q111.71-17.38 111.71-12.5L111.71-12.5Q111.71-10.08 112.18-8.07 112.66-6.05 113.58-4.6 114.49-3.15 115.83-2.34 117.18-1.54 118.91-1.54L118.91-1.54Q120.64-1.54 122.01-2.34 123.38-3.15 124.32-4.6 125.26-6.05 125.76-8.07 126.26-10.08 126.26-12.5L126.26-12.5Q126.26-14.89 125.76-16.91 125.26-18.92 124.32-20.37 123.38-21.83 122.01-22.64 120.64-23.46 118.91-23.46L118.91-23.46Q115.44-23.46 113.59-20.43ZM145.1-16.46L145.1-2.76 151.09-1 151.09 0 135.85 0 135.85-1 140.34-2.76 140.34-33.25 135.85-35.01 135.85-36.01 154.19-36.01 158.85-36.65 159.58-36.01 159.58-26.15 158.53-26.15 155.43-33.4 145.1-33.4 145.1-19.14 155.24-19.65 156.19-19.31 155.7-16.04 145.1-16.46ZM173.35-2.76L177.84-1 177.84 0 164.34 0 164.34-1 168.83-2.76 168.83-21.09 164.34-22.85 164.34-23.85 172.84-25.61 173.35-25.1 173.35-2.76ZM167.2-32.96L167.2-32.96Q167.2-34.23 168.09-35.12 168.98-36.01 170.3-36.01L170.3-36.01Q171.57-36.01 172.46-35.12 173.35-34.23 173.35-32.96L173.35-32.96Q173.35-31.64 172.46-30.75 171.57-29.86 170.3-29.86L170.3-29.86Q168.98-29.86 168.09-30.75 167.2-31.64 167.2-32.96ZM190.07-2.76L194.32-1 194.32 0 181.09 0 181.09-1 185.58-2.76 185.58-21.09 181.09-22.85 181.09-23.85 189.58-25.61 190.07-25.1 190.07-22.14Q191.8-23.75 194.12-24.68 196.44-25.61 198.69-25.61L198.69-25.61Q201.96-25.61 204.12-23.61 206.28-21.61 206.28-17.65L206.28-17.65 206.28-2.76 210.77-1 210.77 0 197.52 0 197.52-1 201.79-2.76 201.79-16.16Q201.79-19.68 200.53-21.04 199.27-22.41 196.22-22.41L196.22-22.41Q192.59-22.41 190.07-20.24L190.07-20.24 190.07-2.76ZM235.58-3.39L240.07-2.15 240.07-1.25 231.57 0.61 231.08 0.1 231.08-2.25Q228.15 0.61 224.17 0.61L224.17 0.61Q222.15 0.61 220.27-0.31 218.39-1.22 216.95-2.87 215.51-4.52 214.64-7.02 213.77-9.52 213.77-12.5L213.77-12.5Q213.77-15.41 214.76-17.87 215.75-20.34 217.44-22.01 219.12-23.68 221.42-24.62 223.71-25.56 226.27-25.56L226.27-25.56Q228.59-25.56 231.08-24.76L231.08-24.76 231.08-33.59 226.57-35.35 226.57-36.35 235.09-38.11 235.58-37.6 235.58-3.39ZM231.08-4.91L231.08-4.91 231.08-21.85Q228.81-23.1 226.79-23.1L226.79-23.1Q223.34-23.1 221.11-20.06 218.88-17.02 218.88-12.5L218.88-12.5Q218.88-7.76 220.72-4.88 222.56-2 225.88-2L225.88-2Q228.94-2 231.08-4.91ZM265.38-13.06L264.67-12.35 248.88-12.35Q248.9-9.62 249.66-7.59 250.42-5.57 251.71-4.42 253-3.27 254.56-2.73 256.11-2.2 257.94-2.2L257.94-2.2Q260.48-2.2 263.38-3.91L263.38-3.91 264.14-2.44Q262.09-0.63 260.04-0.01 257.99 0.61 255.37 0.61L255.37 0.61Q253.1 0.61 251-0.35 248.9-1.32 247.32-3.02 245.73-4.71 244.78-7.18 243.83-9.64 243.83-12.5L243.83-12.5Q243.83-15.21 244.52-17.44 245.22-19.68 246.36-21.17 247.51-22.66 249.04-23.68 250.56-24.71 252.16-25.16 253.76-25.61 255.42-25.61L255.42-25.61Q257.5-25.61 259.27-24.84 261.04-24.07 262.42-22.57 263.8-21.07 264.59-18.63 265.38-16.19 265.38-13.06L265.38-13.06ZM255.52-23.24L255.52-23.24Q252.71-23.24 251.04-21.02 249.37-18.8 248.98-14.94L248.98-14.94 260.62-14.94Q260.62-18.85 259.3-21.04 257.99-23.24 255.52-23.24ZM278.12-2.76L283.89-1 283.89 0 269.14 0 269.14-1 273.63-2.76 273.63-21.09 269.14-22.85 269.14-23.85 277.64-25.61 278.12-25.1 278.12-22.09Q281.84-25.61 287.89-25.61L287.89-25.61 287.89-20.19 286.89-19.85 283.32-21.8Q282.23-21.8 280.81-21.33 279.39-20.85 278.12-19.95L278.12-19.95 278.12-2.76Z" opacity="1" transform="matrix(1,0,0,1,0,0)" fill="#4d7e3e" class="wordmark-text-0" data-fill-palette-color="primary" id="text-0"></path></svg></g></svg></g></svg></g></svg></g><g transform="matrix(1,0,0,1,118.25140276919983,0)"><svg viewBox="0 0 81.4952744616003 59.52792723287673" height="59.52792723287673" width="81.4952744616003"><g><svg xmlns:x="http://ns.adobe.com/Extensibility/1.0/" xmlns:i="http://ns.adobe.com/AdobeIllustrator/10.0/" xmlns:graph="http://ns.adobe.com/Graphs/1.0/" xmlns="http://www.w3.org/2000/svg" xmlns:xlink="http://www.w3.org/1999/xlink" xmlns:a="http://ns.adobe.com/AdobeSVGViewerExtensions/3.0/" version="1.1" x="8" y="0" viewBox="4.3 8.6 90 81.80000000000001" enable-background="new 0 0 100 100" xml:space="preserve" height="59.52792723287673" width="65.4952744616003" class="icon-icon-0" data-fill-palette-color="accent" id="icon-0"><rect x="54.5" y="65.1" width="3" height="5" fill="#4d7e3e" data-fill-palette-color="accent"></rect><path d="M81.1 13.7V8.6H18V13.7L4.3 34.4V38.6C4.3 42.1 8 45 12.8 45S22.2 42.1 22.2 38.6V34.4L32 13.8H43.2L40.2 34.4V38.6C40.2 42.1 43.8 45 48.7 45S58.1 42.1 58.1 38.6V34.4L55 13.8H67.1L76.3 34.4V38.6C76.3 38.9 76.3 39.1 76.4 39.4 77 42.5 81.2 45 85.7 45 90.6 45 94.2 42.1 94.2 38.6V34.4z" fill="#4d7e3e" data-fill-palette-color="accent"></path><rect x="41.4" y="65.1" width="3" height="5" fill="#4d7e3e" data-fill-palette-color="accent"></rect><path d="M76.7 43.4C74.8 45.6 71.6 47 68 47 64.2 47 60.7 45.5 58.6 43.3 56.3 45.5 52.9 47 49 47 45.4 47 42.2 45.6 40.4 43.4 38.3 45.5 34.8 47 31 47 27.4 47 24.2 45.6 22.3 43.4 21.2 44.5 19.7 45.5 18.1 46.1V85.3H59.4V79.8H51V54.1H59.2V51.8H81.1V46.2C79.4 45.6 77.8 44.6 76.7 43.4M48.4 79.7H31V54.1H48.4z" fill="#4d7e3e" data-fill-palette-color="accent"></path><path d="M83.7 64.1H83V68.2H83.7C84.8 68.2 85.8 67.3 85.8 66.1S84.9 64.1 83.7 64.1M61.3 54V90.4H66.2V85.6H89.3V90.2H94.3V54zM84.4 77.2H70.5C69 77.2 67.7 76 67.7 74.4H87.1C87.2 75.9 85.9 77.2 84.4 77.2M83.7 70.3H83V70.6C83 71.9 81.9 73 80.6 73H73C71.7 73 70.6 71.9 70.6 70.6V62.7C70.6 62.3 70.9 62 71.3 62H83.8C86.1 62 87.9 63.9 87.9 66.1 87.9 68.4 86 70.3 83.7 70.3" fill="#4d7e3e" data-fill-palette-color="accent"></path></svg></g></svg></g><g><rect width="57.024906769199845" height="3.8844355359491516" y="54.643491696927576" x="199.74667723080012" fill="#4d7e3e" data-fill-palette-color="secondary"></rect><rect width="57.024906769199845" height="3.8844355359491516" y="54.643491696927576" x="61.22649599999998" fill="#4d7e3e" data-fill-palette-color="secondary"></rect></g></svg></g></svg></g></svg></g><defs></defs></svg><rect width="375.07953" height="244.747394" fill="none" stroke="none" visibility="hidden"></rect></g></svg></g></svg>